<?xml version="1.0" standalone="no"?>
<!DOCTYPE svg PUBLIC "-//W3C//DTD SVG 20010904//EN"
 "http://www.w3.org/TR/2001/REC-SVG-20010904/DTD/svg10.dtd">
<svg version="1.0" xmlns="http://www.w3.org/2000/svg"
 width="300.000000pt" height="93.000000pt" viewBox="0 0 300.000000 93.000000"
 preserveAspectRatio="xMidYMid meet">
<metadata>
Created by potrace 1.10, written by Peter Selinger 2001-2011
</metadata>
<g transform="translate(0.000000,93.000000) scale(0.100000,-0.100000)"
fill="#000000" stroke="none">
<path d="M349 857 c-104 -30 -190 -104 -237 -206 -23 -47 -27 -70 -27 -146 0
-82 3 -97 32 -156 39 -79 102 -140 181 -177 48 -22 71 -26 147 -26 76 0 99 4
147 26 79 37 142 98 181 177 29 59 32 74 32 156 0 106 -24 169 -94 247 -83 94
-241 139 -362 105z m238 -68 c112 -54 177 -158 176 -286 -2 -277 -326 -418
-536 -234 -20 18 -51 62 -68 97 -75 153 -18 337 130 418 98 53 194 55 298 5z"/>
<path d="M335 668 c-3 -13 -4 -95 -3 -183 3 -147 4 -160 22 -163 22 -5 276
164 276 183 0 16 -249 185 -272 185 -10 0 -20 -10 -23 -22z m143 -94 c45 -31
82 -62 82 -69 0 -18 -165 -129 -179 -121 -16 11 -15 246 2 246 6 0 49 -25 95
-56z"/>
<path d="M2673 821 c-92 -67 -169 -190 -199 -320 -21 -90 -16 -265 9 -303 17
-24 25 -27 90 -30 40 -2 74 -2 76 -1 2 1 -8 26 -23 54 -25 51 -33 100 -20 134
20 50 221 84 238 39 7 -17 -19 -114 -43 -162 -28 -56 -21 -62 69 -62 l79 0 10
38 c16 55 13 222 -5 309 -27 134 -94 252 -172 306 -48 34 -60 34 -109 -2z
m106 -47 c41 -34 94 -124 121 -204 16 -47 24 -98 27 -185 6 -142 -2 -175 -45
-175 -16 0 -31 3 -35 6 -3 3 3 31 14 61 27 79 25 124 -7 154 -22 21 -35 24
-98 23 -129 -1 -203 -62 -193 -159 3 -27 7 -57 9 -65 2 -10 -5 -15 -22 -15
-42 0 -52 35 -47 165 3 94 9 128 31 185 42 111 146 235 197 235 10 0 31 -12
48 -26z"/>
<path d="M2703 723 c-67 -37 -136 -160 -114 -202 20 -36 44 -42 123 -31 114
17 117 18 135 55 15 32 15 37 -2 82 -19 50 -73 113 -97 113 -7 0 -28 -8 -45
-17z m70 -41 c22 -24 47 -86 47 -114 0 -22 -6 -24 -102 -36 -56 -6 -103 -10
-106 -8 -8 9 62 128 90 152 35 29 49 30 71 6z"/>
<path d="M1075 828 c-42 -129 -74 -620 -42 -646 10 -9 262 -17 384 -12 8 0 5
26 -11 85 -13 47 -26 88 -30 92 -4 4 -15 2 -24 -5 -61 -44 -80 -52 -124 -52
-67 0 -78 20 -78 135 0 98 22 207 65 320 19 51 22 71 14 81 -15 19 -148 19
-154 2z m102 -55 c-3 -16 -18 -66 -32 -113 -21 -66 -28 -112 -32 -205 -4 -109
-2 -123 17 -153 28 -45 77 -65 131 -53 23 5 46 14 52 20 20 20 45 12 51 -15 4
-15 3 -31 -2 -36 -5 -5 -73 -7 -153 -6 l-144 3 -3 100 c-5 146 24 421 49 467
6 11 21 18 40 18 29 0 31 -2 26 -27z"/>
<path d="M2026 794 c-53 -19 -64 -30 -72 -70 -5 -28 -11 -34 -33 -34 -38 0
-51 -12 -57 -52 -7 -39 5 -53 44 -53 l23 0 2 -180 c2 -153 5 -186 21 -218 10
-20 20 -37 22 -37 4 0 105 49 111 54 1 1 -8 28 -19 61 -15 44 -20 89 -21 176
-2 132 6 152 57 147 28 -3 31 0 34 29 5 50 -14 76 -49 69 -34 -6 -34 -8 -13
43 12 30 13 44 4 60 -6 12 -12 21 -13 20 -1 0 -20 -7 -41 -15z m29 -134 l24
-22 -29 -24 c-42 -36 -53 -80 -45 -191 3 -53 11 -118 17 -146 8 -40 7 -51 -3
-58 -37 -23 -42 0 -47 196 -4 165 -4 171 -29 197 l-25 26 26 18 c15 9 34 31
43 48 24 47 38 51 41 12 2 -19 13 -43 27 -56z"/>
<path d="M2315 794 c-45 -16 -75 -46 -75 -75 0 -20 -5 -23 -51 -33 -21 -5 -28
-13 -32 -38 -7 -47 8 -70 38 -62 l25 6 0 -155 c0 -157 10 -240 34 -272 11 -16
16 -15 67 10 30 15 55 29 57 30 2 2 -3 16 -11 32 -18 34 -37 160 -37 241 0 79
16 107 60 107 31 0 35 3 38 29 2 16 -2 40 -9 53 -11 20 -19 24 -41 19 -32 -6
-34 -2 -13 48 12 27 13 42 5 56 -6 11 -12 20 -13 19 -1 0 -20 -7 -42 -15z m30
-134 l24 -22 -29 -24 c-43 -36 -54 -82 -47 -194 3 -54 11 -118 18 -145 10 -39
9 -49 -2 -56 -39 -24 -46 9 -48 208 -1 147 -2 152 -26 182 l-26 30 26 17 c14
9 33 31 42 48 24 47 38 51 41 12 2 -19 13 -43 27 -56z"/>
<path d="M1573 690 c-43 -14 -100 -83 -118 -144 -19 -64 -19 -159 1 -225 20
-68 92 -145 149 -160 62 -16 128 3 172 51 45 48 67 117 68 208 0 77 -3 92 -33
153 -24 49 -45 75 -73 94 -44 29 -114 38 -166 23z m123 -51 c35 -16 49 -32 74
-81 26 -53 30 -72 30 -143 0 -139 -53 -210 -157 -210 -53 0 -57 2 -97 46 -48
53 -66 103 -66 181 0 107 42 190 110 217 38 15 60 13 106 -10z"/>
<path d="M1584 611 c-91 -56 -101 -255 -16 -321 39 -31 112 -27 147 7 38 39
54 73 61 135 9 74 -9 129 -51 167 -42 37 -93 41 -141 12z m113 -36 c54 -38 56
-186 3 -243 -28 -30 -99 -31 -126 -1 -23 25 -31 131 -14 183 21 66 88 95 137
61z"/>
</g>
</svg>
